<svg width="67" height="17" viewBox="0 0 100 26" fill="none" xmlns="http://www.w3.org/2000/svg">
	<path fill-rule="evenodd" clip-rule="evenodd" d="M26.079 12.57C26.079 10.8834 25.4222 9.29765 24.2297 8.10488C23.0369 6.91241 21.4512 6.2556 19.7646 6.2556H6.25571V12.57V18.8844H19.7646C21.4512 18.8844 23.0369 18.2273 24.2297 17.0348C25.4222 15.8424 26.079 14.2566 26.079 12.57ZM32.3349 12.5701C32.3349 19.5124 26.7069 25.1402 19.7645 25.1402H5.11026H2.29084H0V12.5701V0H19.7645C26.7069 0 32.3349 5.62777 32.3349 12.5701ZM97.7048 11.7492C96.9862 11.0306 96.1485 10.466 95.215 10.0712C94.247 9.66158 93.2206 9.45402 92.164 9.45402V9.46417H75.5325C74.6436 9.46417 73.9206 8.74125 73.9206 7.85259C73.9206 6.96393 74.6436 6.24101 75.5325 6.24101H95.2454C96.9646 6.24101 98.3588 4.84714 98.3588 3.12762C98.3588 1.40842 96.9646 0.0145454 95.2454 0.0145454H75.5325C74.4757 0.0145454 73.449 0.222412 72.4803 0.631995C71.5468 1.02682 70.7089 1.59138 69.9899 2.3103C69.2713 3.02923 68.7065 3.86715 68.3116 4.8007C67.902 5.76901 67.6942 6.79604 67.6942 7.85259C67.6942 8.90945 67.902 9.93618 68.3116 10.9045C68.7065 11.8383 69.2713 12.6763 69.9899 13.3949C70.7089 14.1138 71.5468 14.6784 72.4803 15.0735C73.449 15.4831 74.4757 15.6906 75.5325 15.6906H92.164V15.6805C93.0515 15.6805 93.7734 16.4022 93.7734 17.2899C93.7734 18.177 93.0515 18.8993 92.164 18.8993H70.8076C69.0884 18.8993 67.6942 20.2929 67.6942 22.0124C67.6942 23.7319 69.0884 25.1255 70.8076 25.1255H92.164C93.2206 25.1255 94.247 24.9179 95.215 24.5084C96.1485 24.1135 96.9862 23.549 97.7048 22.8304C98.4234 22.1117 98.9879 21.2744 99.3828 20.3409C99.7924 19.3729 99.9999 18.3462 99.9999 17.2899C99.9999 16.2334 99.7924 15.2069 99.3828 14.2386C98.9879 13.3054 98.4234 12.4678 97.7048 11.7492ZM59.8965 0H66.1233V22.0123C66.1233 23.2715 65.3647 24.4065 64.2015 24.8886C63.8162 25.0479 63.4115 25.1254 63.0105 25.1254C62.2003 25.1257 61.4042 24.8093 60.8086 24.2137L40.044 9.20486V25.1402H33.8176V3.12753C33.8176 1.86865 34.5762 0.733375 35.7394 0.251531C36.903 -0.230314 38.2418 0.0359769 39.1323 0.926482L59.8965 15.9353V0Z" fill="#fff"/>
</svg>
