<?xml version="1.0" encoding="utf-8"?>
<!-- Generator: Adobe Illustrator 28.0.0, SVG Export Plug-In . SVG Version: 6.00 Build 0)  -->
<svg version="1.1" id="Слой_1" xmlns="http://www.w3.org/2000/svg" xmlns:xlink="http://www.w3.org/1999/xlink" x="0px" y="0px"
	 viewBox="0 0 998.1201782 1000" style="enable-background:new 0 0 998.1201782 1000;" xml:space="preserve">
<style type="text/css">
	.st0{fill:#FFFFFF;}
	.st1{fill:#006241;}
</style>
<circle class="st0" cx="499.0600891" cy="499.0602722" r="499.0600586"/>
<path class="st1" d="M549.2455444,215.7627563c-4.3748169-0.7817993-25.46698-4.3248901-50.1854858-4.3248901
	c-24.7184753,0-45.8106384,3.5264435-50.1854553,4.3248901c-2.5117493,0.4491425-3.4765625-2.0127411-1.5636292-3.4432831
	c1.7299805-1.2808228,51.7324524-39.3399353,51.7324524-39.3399353l51.7157898,39.3399353
	C552.7054443,213.7500305,551.7573242,216.2118988,549.2455444,215.7627563z M462.8473511,462.8808594
	c0,0-2.6448364,0.9481201-3.3434753,3.276947c10.4795532,8.0509644,17.6987915,26.3652649,39.5561829,26.3652649
	c21.8574219,0,29.0765991-18.31427,39.5395508-26.3652344c-0.6820068-2.3454285-3.3268433-3.276947-3.3268433-3.276947
	s-13.6900024,3.2270508-36.2127075,3.2270508s-36.2127075-3.2270508-36.2127075-3.2270508V462.8808594z M499.0600586,432.0576172
	c-6.0714722,0-7.4022217-2.2955322-11.5441589-2.2788696c-3.9422913,0.0166321-11.5940552,3.1605225-13.2574768,6.0382385
	c0.1164246,1.4638062,0.6487122,2.7779236,1.7133179,3.9422913c8.8493958,1.3307495,12.8416138,6.2544861,23.10495,6.2544861
	s14.2389221-4.9237366,23.10495-6.2544861c1.0313721-1.1643677,1.5969238-2.461853,1.7133789-3.9422913
	c-1.6467896-2.8777161-9.3151855-6.0049438-13.2741394-6.0382385c-4.1585693-0.0332947-5.5059204,2.2788696-11.560791,2.2788696
	H499.0600586z M997.3549805,526.423584c-0.6320801,11.9267578-1.6967163,23.7537231-3.1605225,35.4475708
	c-56.4898071,9.3484497-76.6837769-40.9867554-134.5542603-38.458374
	c3.4598999,12.276062,6.2711182,24.7850342,8.4335327,37.5601196
	c47.7236328-0.0332642,66.9528198,44.5797119,120.0492554,38.0092163
	c-2.7945557,13.6400146-6.1546631,27.097168-10.0304565,40.3546143
	c-41.9848022,4.1253052-56.772644-37.5933838-105.3612061-36.4456787c0.3991699,6.9198608,0.6154175,13.906189,0.6154175,20.9591064
	l-0.199585,11.6606445l94.3493042,35.99646c-4.9403687,13.4238281-10.4629517,26.5482178-16.4844971,39.4064941
	c-28.3613892-1.5636597-38.1422729-37.942688-81.2915039-35.0482788
	c-1.2974243,9.3317871-2.9442139,18.5471802-4.9070435,27.6460571
	c37.4768677-2.6282349,45.5444946,31.8711548,72.3921509,34.6657104
	c-6.8366699,12.475647-14.2056274,24.6186523-22.0403442,36.4455566
	c-15.9023438-8.5167236-29.6920776-34.2166138-59.8499756-35.796875c3.0939941-9.5480347,5.8053589-19.229126,8.1008911-29.0766602
	c-26.7478638,0-57.3381348-10.4296265-82.9881592-33.7840576c8.3171387-47.3410034-65.15625-95.5469971-65.15625-130.2127075
	c0-37.6599121,19.0462036-58.502594,19.0462036-109.2702637c0-37.6765137-18.2976074-78.546814-45.8937988-106.475708
	c-5.3395996-5.42276-10.8123169-9.8141785-17.0999756-13.7565002c25.3505249,31.3721619,44.812561,68.5662842,44.812561,111.6489258
	c0,47.8067932-22.2399902,73.0409241-22.2399902,117.1715393c0,44.1139526,64.5408325,82.2894897,64.5408325,127.7841187
	c0,17.8984375-5.722168,35.3809814-24.5853882,69.7139893c28.9768066,28.9436035,66.7199097,44.7294312,91.0723877,44.7294312
	c7.9012451,0,12.1429443-2.4119873,14.9708252-8.6165771c2.4285889-5.3562012,4.7407227-10.7789307,6.9198608-16.2516479
	c26.2321167,1.0147095,38.2420654,24.8515625,52.7637329,34.366272
	c-7.9677734,10.6958618-16.3347778,21.0256958-25.1010132,31.0228882
	c-9.7310181-10.7789917-22.805481-28.9102783-41.9514771-33.9505005
	c-3.4266968,6.6537476-7.0529175,13.2241821-10.8621826,19.6616821
	c16.4845581,4.4912109,27.7625122,21.1254883,36.4954834,32.0708008
	c-9.414917,9.7476196-19.2124634,19.0960693-29.4093018,28.0785522
	c-6.3709106-9.9140015-16.2849121-22.489502-27.3966064-29.2761841c-4.1086426,5.5557861-8.383667,10.9785767-12.791687,16.2516479
	c9.4482422,6.4041748,17.7819824,17.9317017,23.2213745,27.3300781
	c-11.7770386,9.4482422-23.9533081,18.4140625-36.5620728,26.7977295
	c-6.2211914-50.6845093-75.4029541-85.416748-56.7559814-144.218811
	c-6.1213989,10.3631592-13.4237671,23.321228-13.4237671,38.9241333c0,42.5670166,45.3449097,76.3510742,48.9545288,118.6519165
	c-9.3983154,5.6223755-19.0129395,10.9120483-28.8104858,15.9189453
	c-1.630127-46.4926147-49.6365356-97.37677-49.6365356-135.5356445c0-42.6002808,55.7911987-85.3834839,55.7911987-135.6687622
	c0-50.3186035-64.3744507-85.1506348-64.3744507-129.3311768c0-44.1472168,27.3799438-69.547699,27.3799438-126.1373291
	c0-41.4525146-19.6949463-83.4040222-50.1189575-110.2017517c-5.3894653-4.7573853-10.6958008-8.5333862-17.0667114-11.8435669
	c28.6940308,34.4161987,45.3282471,65.6386719,45.3282471,113.0129395c0,53.2128906-31.3721924,82.7552795-31.3721924,134.8537292
	c0,52.1149902,63.1768188,81.0918579,63.1768188,129.6637573s-58.802002,89.5087891-58.802002,139.411438
	c0,45.3948364,51.8322754,90.7064819,52.5974121,144.5680542c-11.3278809,4.9403687-22.8720703,9.4482422-34.6158447,13.5402832
	c6.5871582-54.4105835-51.7490845-110.5344849-51.7490845-154.9312134c0-48.5386353,60.9976807-90.2572632,60.9976807-142.588562
	c0-52.364502-62.0123901-76.7004395-62.0123901-130.4456177c0-53.7118835,38.0424805-83.4538879,38.0424805-142.8048096
	c0-46.2597656-22.8388062-87.861969-56.2070923-113.64505l-2.1125488-1.5968933
	c-3.1438599-2.3287659-5.7388306,0.4823914-3.5097656,3.2436829
	c23.6205444,29.4924927,36.2459717,59.3176575,36.2459717,103.4815369c0,54.2940979-43.6980591,98.4080811-43.6980591,151.0054932
	c0,62.0789185,58.6855469,79.8276367,58.6855469,130.7616577c0,50.9173584-62.9273071,91.6546021-62.9273071,145.7158813
	c0,50.1355591,59.5505371,105.7770386,49.3370972,163.647522c-11.9433594,3.0939941-24.0531006,5.7886963-36.3458252,7.984436
	c11.1782227-72.0595093-47.2412109-123.8085938-47.2412109-170.9499512c0-51.0338135,65.1729126-96.5284424,65.1729126-146.3978271
	c0-47.0415649-46.7754517-62.4116211-52.9301147-110.5344238c-0.8483276-6.5705566-6.1213989-11.4443359-13.390564-10.2301025
	c-9.4981079,1.7299805-21.6743774,7.984436-40.8037109,7.984436s-31.3056335-6.2711182-40.8204041-7.984436
	c-7.2525635-1.1976318-12.5256042,3.6762085-13.3739319,10.2301025
	c-6.138031,48.1228027-52.9467773,63.4761963-52.9467773,110.5344238c0,49.8694458,65.1895447,95.3473511,65.1895447,146.3978271
	c0,47.1413574-58.4193726,98.8904419-47.2578125,170.9499512c-12.2760925-2.2123413-24.4024353-4.9070435-36.3457947-7.984436
	c-10.2134094-57.8704834,49.3537598-113.5119629,49.3537598-163.647522c0-54.0612793-62.9439392-94.7985229-62.9439392-145.7158813
	c0-50.934021,58.702179-68.6827393,58.702179-130.7616577c0-52.5974426-43.7147522-96.6947632-43.7147522-151.0054932
	c0-44.1472473,12.6253967-73.9724121,36.2626343-103.4815369c2.2123413-2.7612915-0.3659668-5.5724487-3.5264587-3.2436829
	l-2.0959167,1.5968933c-33.3349915,25.7165222-56.157135,67.3187561-56.157135,113.5784912
	c0,59.3509521,38.0424805,89.0928955,38.0424805,142.8048401c0,53.7285156-62.0124207,78.0644531-62.0124207,130.4455566
	c0,52.3312988,60.9977112,94.0499268,60.9977112,142.588623c0,44.4133911-58.3362122,100.5205688-51.7324524,154.9311523
	c-11.7604065-4.09198-23.3045349-8.6165771-34.6324768-13.5402222c0.7818298-53.8616333,52.58078-99.1899414,52.58078-144.5680542
	c0-49.90271-58.7687073-90.8394775-58.7687073-139.411499c0-48.5719604,63.1435242-77.5487061,63.1435242-129.6638184
	c0-52.0983887-31.3555298-81.6407776-31.3555298-134.8536682c0-47.3742676,16.6176147-78.5967407,45.3116455-113.0129395
	c-6.3875732,3.3101807-11.6772461,7.0861816-17.0500793,11.8435669
	c-30.4240112,26.7977295-50.1022949,68.7492371-50.1022949,110.2017517c0,56.5896301,27.3799438,81.9900818,27.3799438,126.1373291
	c0,44.180481-64.3744507,79.0125732-64.3744507,129.3311157c0,50.2852783,55.7911987,93.085144,55.7911987,135.6687012
	c0,38.1755371-48.0396423,89.0596924-49.6531677,135.5357056c-9.7975769-5.006897-19.4121399-10.2965698-28.8104858-15.9190063
	c3.6262665-42.3007812,48.9545288-76.0849609,48.9545288-118.6519165c0-15.6029053-7.2857666-28.5609741-13.4237976-38.9240723
	c18.6469727,58.802002-50.53479,93.5342407-56.7559814,144.21875c-12.6087494-8.383667-24.8016357-17.3494873-36.562027-26.7977295
	c5.42276-9.3817139,13.7565002-20.9258423,23.2213745-27.3300781c-4.4246979-5.2564087-8.6830597-10.6958008-12.7917175-16.2516479
	c-11.1282959,6.7868042-21.0589294,19.3623047-27.413208,29.2762451
	c-10.1635132-8.9658813-19.9777069-18.3309326-29.3926697-28.0786133
	c8.7329559-10.9453125,20.0109711-27.5795288,36.4954987-32.0708008c-3.8092499-6.437439-7.4355011-12.991272-10.8621521-19.6616211
	c-19.1459961,5.0401611-32.2371368,23.1715088-41.9515305,33.9504395
	c-8.7662354-10.0137939-17.1498871-20.3436279-25.1010437-31.0228271
	c14.5216827-9.5147705,26.5315933-33.3682861,52.747139-34.366333c2.1957245,5.4560547,4.5078735,10.8787842,6.9364777,16.251709
	c2.8278198,6.2045898,7.0861664,8.6165161,14.9707947,8.6165161c24.3525085,0,62.0789337-15.7858887,91.0723877-44.7294312
	c-18.863205-34.3330078-24.5853729-51.8156128-24.5853729-69.7139893c0-45.4779663,64.5408173-83.6535034,64.5408173-127.7841187
	s-22.2399597-69.3647156-22.2399597-117.1715088c0-43.0826416,19.4620361-80.2767944,44.8125916-111.6489258
	c-6.2877197,3.9422913-11.7604065,8.3337402-17.0999756,13.7565002
	c-27.5961914,27.9454956-45.8938599,68.7991638-45.8938599,106.475708c0,50.7676697,19.0628357,71.6103516,19.0628357,109.2702332
	c0,34.6657104-73.4900208,82.8717041-65.1728973,130.2127075c-25.6499786,23.3544312-56.2403259,33.7841187-83.0047913,33.7841187
	c2.3287964,9.8474121,5.0401764,19.5285645,8.1008759,29.0765991c-30.1412277,1.5969238-43.9309921,27.2967529-59.8499527,35.796875
	c-7.8513565-11.8269043-15.2036896-23.9698486-22.0403595-36.4455566
	c26.8310089-2.7945557,34.9152451-37.2939453,72.4088058-34.6657104c-1.9628448-9.098938-3.6262665-18.3309326-4.9237213-27.6460571
	c-43.1491852-2.8943481-52.9301224,33.5013428-81.2914734,35.0482788
	c-6.0215912-12.8582153-11.5441551-25.982666-16.48452-39.4064941l94.3659744-35.99646l-0.1996155-11.6605835
	c0-7.0529175,0.2162399-14.0393677,0.5988388-20.9591064c-48.5885773-1.1311646-63.3764038,40.5708618-105.3611984,36.4455566
	c-3.8591404-13.2575073-7.2358885-26.697937-10.0138054-40.3546143
	c53.063179,6.5704956,72.3089905-38.0424805,120.0492172-38.0092163
	c2.1624603-12.7750854,4.9736328-25.2840576,8.4169159-37.5600586
	c-57.8704834-2.5117798-78.0644226,47.8233643-134.5376282,38.458313
	c-1.4804461-11.6938477-2.5284019-23.520813-3.1605043-35.4475098
	c65.6552963,7.3356934,90.2739563-46.6424255,150.0573425-40.0386047
	c5.6390076-14.2887878,12.1928864-28.1118469,19.5784912-41.41922
	C95.4304657,431.7247314,69.9801025,494.4024963,0.2161579,484.7712708C7.7514639,215.7791901,228.2048798,0,499.0599976,0
	s491.3085327,215.7791901,498.8438721,484.8377991c-69.7805786,9.6312256-95.230957-53.0299072-170.1681519-39.8722229
	c7.3689575,13.307373,13.9228516,27.1304321,19.5784912,41.41922
	c59.7501221-6.6204224,84.3687744,47.3742981,150.0407715,40.0386047V526.423584z M284.5450439,317.1151123
	c-36.7450104-15.0206909-81.2249298-11.560791-119.2174988,12.8416138
	c-5.8885193-35.3477173-25.0677795-66.7531738-52.3811874-85.6995392c-3.7759781-2.6115723-7.7016449-0.1330872-7.3523331,4.2417297
	c5.7720795,74.6876678-37.8927765,139.5445404-91.5880508,196.5500031
	c55.3420639,16.6342163,102.4502029-54.6268005,174.2268982-29.7586365
	c25.7497864-38.3418884,58.4526825-71.6602478,96.3121796-98.1752014V317.1151123z M499.0600281,271.936554
	c-46.3263245,0-85.1339722,26.1989136-95.2974854,60.0495911c-0.7818298,2.5949402,0.2827759,4.2749939,3.276947,2.9276123
	c8.3337402-3.7427063,17.8152466-5.5391846,28.1118469-5.5391846c18.8964844,0,35.5473633,6.9364624,45.3948059,19.0129089
	c4.3581543,14.3719788,4.7241516,35.1813965-0.199585,47.0582275c-7.7848206-1.746582-10.5793762-7.7681885-18.1812134-7.7681885
	c-7.6018677,0-13.490387,5.3395691-26.381897,5.3395691c-12.8748779,0-14.3886108-6.0881042-22.8554382-6.0881042
	c-9.9639282,0-11.7936707,10.2633057-11.7936707,21.8407288c0,51.6159973,47.4408264,122.644165,97.9090576,122.644165
	c50.4516602,0,97.892395-71.0281982,97.892395-122.6441956c0-11.5774231-2.3787231-21.4914246-12.791748-22.8387756
	c-5.1898804,3.7427063-9.9638672,7.0861816-21.8406982,7.0861816c-12.8915405,0-16.4512329-5.3395691-24.036438-5.3395691
	c-9.1654663,0-8.2505493,19.3289795-19.1293945,20.4101868c-7.2525635-17.4326782-7.6018677-39.789093-1.5802612-59.7002563
	c9.8640137-12.0764465,26.498291-19.0129089,45.3947754-19.0129089c10.2965698,0,19.8446655,1.8131104,28.0952148,5.5391846
	c3.0108032,1.3473816,4.0587158-0.3493042,3.2769165-2.9276428c-10.1469116-33.850647-48.9379272-60.0495605-95.2642517-60.0495605
	L499.0600281,271.936554z M572.8162231,345.9921265c-11.1116333,0-24.1362915,3.4100342-32.3203125,12.5255737
	c-0.8483276,2.4785156-0.8483276,6.1713257,0.3493042,8.6331482c20.144043-6.9031982,37.9094238-7.169342,46.4927368,2.4286194
	c4.5744019-4.1585693,6.038208-7.9012756,6.038208-12.2427979
	C593.3761597,350.6330566,586.5560913,345.9921265,572.8162231,345.9921265z M410.782196,369.5794678
	c9.714386-9.7310181,30.1911316-9.3151855,51.4663086-1.4638062c0.9315186-10.5793762-18.0148926-22.1401672-36.9446411-22.1401672
	c-13.7565002,0-20.559906,4.6409607-20.559906,11.3612061c0,4.3415222,1.4638062,8.1008606,6.0382385,12.2427979V369.5794678z
	 M730.0595703,194.8535309c-36.5786743,2.6115723-68.3500977,15.1704254-94.0499268,36.096283
	c10.9120483-30.9396515,24.7683716-58.00354,42.3341675-84.235733
	c-46.5758667,4.9403687-85.5165405,21.9738159-113.9277954,51.0837097l-22.2399902-58.3029633l49.3703613-43.5983124
	l-66.1044312-4.6742172l-26.381897-61.4801102l-26.3984985,61.4801102l-66.1044006,4.6742172l49.3703918,43.5983124
	l-22.2233582,58.3029633c-28.427887-29.1098938-67.3685913-46.1433411-113.9111633-51.0837097
	c17.5324707,26.2488098,31.3887634,53.3126984,42.3008118,84.235733
	c-25.6832581-20.9424896-57.4546204-33.5013275-94.0332642-36.096283
	c21.9405518,28.2116547,41.3859253,58.2863312,55.7911987,90.6232758c1.630127,3.6428833,5.1233521,4.8405762,8.899292,2.9608765
	c50.1023254-24.9014282,106.5588684-38.9074402,166.2923584-38.9074402s116.1734314,14.022644,166.3089905,38.9074402
	c3.776001,1.8796997,7.269165,0.6820068,8.8826904-2.9608765
	C688.6569824,253.1398621,708.102417,223.0651855,730.0595703,194.8535309z M809.9204712,415.3235779
	c71.7434082-24.8681946,118.8681641,46.3762207,174.2102661,29.7586365
	c-53.6953125-57.0054932-97.3435669-121.8623657-91.5714722-196.5500336
	c0.3493042-4.3748169-3.5929565-6.8699341-7.352356-4.2417297c-27.3300171,18.9463959-46.5092773,50.3517914-52.3811035,85.6995392
	c-38.0092163-24.4024048-82.4725342-27.8789978-119.2175293-12.8416138
	C751.4178467,343.6300354,784.1373901,376.9483948,809.9204712,415.3235779z"/>
<g>
	<path class="st1" d="M874.9104614,931.7164917h-25.3838501V1000h-9.098938v-68.2835083h-25.3172607v-8.4833984h59.8000488
		V931.7164917z M885.572998,923.2330933h13.4903564l26.1157227,60.1826172h0.1830444l26.182251-60.1826172h13.2741699V1000
		h-9.1654663v-64.3577881h-0.199646L927.9570923,1000h-5.5392456l-27.5961304-64.3577881h-0.1830444V1000h-9.0656128v-76.7669067
		H885.572998z"/>
</g>
</svg>
